<svg width="24" height="24" viewBox="0 0 24 24" fill="none" xmlns="http://www.w3.org/2000/svg">
<path d="M12 0C5.37097 0 0 5.37097 0 12C0 18.629 5.37097 24 12 24C18.629 24 24 18.629 24 12C24 5.37097 18.629 0 12 0ZM20.2016 16.3984C20.0323 16.7903 19.3258 17.0758 18.0339 17.279C17.9661 17.371 17.9129 17.7532 17.8258 18.0484C17.7726 18.2274 17.6468 18.3339 17.4339 18.3339H17.4242C17.1242 18.3339 16.8048 18.1935 16.1758 18.1935C15.3242 18.1935 15.029 18.3871 14.3661 18.8565C13.6645 19.3548 12.9919 19.7806 11.9855 19.7371C10.9694 19.8145 10.1177 19.1952 9.63871 18.8565C8.97097 18.3871 8.68064 18.1935 7.82903 18.1935C7.22419 18.1935 6.84194 18.3435 6.58065 18.3435C6.31935 18.3435 6.21774 18.1839 6.17903 18.0532C6.09194 17.7581 6.03871 17.371 5.97097 17.279C5.30323 17.1774 3.80323 16.9161 3.76935 16.2435C3.75968 16.0694 3.88065 15.9145 4.05484 15.8855C6.29516 15.5177 7.30161 13.2194 7.34516 13.1226C7.34516 13.1177 7.35 13.1129 7.35484 13.1081C7.47581 12.8661 7.5 12.6629 7.43226 12.5032C7.26774 12.121 6.56613 11.9855 6.27097 11.8645C5.50645 11.5645 5.4 11.2161 5.44839 10.979C5.52581 10.5677 6.14516 10.3113 6.50806 10.4806C6.79355 10.6161 7.05 10.6839 7.26774 10.6839C7.42742 10.6839 7.53387 10.6452 7.5871 10.6161C7.51935 9.45968 7.35968 7.80968 7.77097 6.88548C8.85968 4.45161 11.1629 4.25806 11.8403 4.25806C11.8694 4.25806 12.1355 4.25323 12.1645 4.25323C13.8435 4.25323 15.4548 5.11452 16.2435 6.88064C16.6548 7.80484 16.4952 9.45 16.4274 10.6113C16.4806 10.6403 16.5677 10.6742 16.7032 10.679C16.9113 10.6694 17.1484 10.6016 17.4145 10.4758C17.6081 10.3839 17.879 10.3984 18.0726 10.4758C18.3774 10.5871 18.571 10.8048 18.5758 11.0516C18.5806 11.3661 18.3 11.6371 17.7435 11.8548C17.6758 11.8839 17.5935 11.9081 17.5065 11.9371C17.1919 12.0387 16.7129 12.1887 16.5871 12.4935C16.5194 12.6532 16.5484 12.8565 16.6645 13.0984C16.6694 13.1032 16.6694 13.1081 16.6742 13.1129C16.7177 13.2097 17.7242 15.5081 19.9645 15.8758C20.1581 15.9242 20.3081 16.1419 20.2016 16.3984Z" fill="white"/>
</svg>
