<svg width="35" height="24" viewBox="0 0 35 24" fill="none" xmlns="http://www.w3.org/2000/svg">
<path d="M33.6758 3.74904C33.4809 3.02308 33.0987 2.36104 32.5675 1.82918C32.0364 1.29733 31.3748 0.914313 30.6491 0.718471C27.9777 1.45785e-07 17.2695 0 17.2695 0C17.2695 0 6.56118 -1.45785e-07 3.88984 0.71465C3.1638 0.909856 2.50191 1.29266 1.97063 1.82461C1.43934 2.35656 1.05738 3.01894 0.863087 3.74522C0.148437 6.42038 0.148438 12 0.148438 12C0.148438 12 0.148437 17.5796 0.863087 20.251C1.25672 21.7261 2.4185 22.8879 3.88984 23.2815C6.56118 24 17.2695 24 17.2695 24C17.2695 24 27.9777 24 30.6491 23.2815C32.1242 22.8879 33.2822 21.7261 33.6758 20.251C34.3905 17.5796 34.3905 12 34.3905 12C34.3905 12 34.3905 6.42038 33.6758 3.74904ZM13.8682 17.121V6.87898L22.7344 11.9618L13.8682 17.121Z" fill="white"/>
</svg>
