<svg width="25" height="24" viewBox="0 0 25 24" fill="none" xmlns="http://www.w3.org/2000/svg">
<path d="M24.1487 12.0743C24.1487 5.40402 18.7401 0 12.0743 0C5.40402 0 0 5.40402 0 12.0743C0 18.0994 4.41392 23.0952 10.1877 24V15.5653H7.12159V12.0751H10.1877V9.41345C10.1877 6.38808 11.9875 4.71729 14.7465 4.71729C16.0679 4.71729 17.4512 4.95274 17.4512 4.95274V7.92378H15.926C14.4288 7.92378 13.9609 8.85577 13.9609 9.8104V12.0743H17.3093L16.7712 15.5646H13.9609V23.9992C19.7302 23.0944 24.1487 18.0987 24.1487 12.0736V12.0743Z" fill="white"/>
</svg>
