<svg width="24" height="24" viewBox="0 0 24 24" fill="none" xmlns="http://www.w3.org/2000/svg">
<path d="M12 0C5.37321 0 0 5.37321 0 12C0 18.6268 5.37321 24 12 24C18.6268 24 24 18.6268 24 12C24 5.37321 18.6268 0 12 0ZM16.4732 16.9714C15.3857 17.9732 13.9018 18.5625 12.1313 18.5625C9.56786 18.5625 7.35 17.092 6.27054 14.9491C5.82589 14.0625 5.57143 13.0607 5.57143 12C5.57143 10.9393 5.82589 9.9375 6.27054 9.05089C7.35 6.90536 9.56786 5.43482 12.1313 5.43482C13.8991 5.43482 15.383 6.08571 16.5214 7.14375L14.6411 9.02679C13.9607 8.37589 13.0955 8.04643 12.1339 8.04643C10.425 8.04643 8.97857 9.20089 8.46161 10.7518C8.33036 11.1455 8.25536 11.5661 8.25536 12C8.25536 12.4339 8.33036 12.8545 8.46161 13.2482C8.97857 14.7991 10.425 15.9536 12.1313 15.9536C13.0152 15.9536 13.7652 15.7205 14.3518 15.3268C15.0482 14.8607 15.5089 14.167 15.6616 13.3446H12.1313V10.8054H18.3107C18.3884 11.2366 18.4286 11.6839 18.4286 12.1473C18.4286 14.1482 17.7134 15.8277 16.4732 16.9714Z" fill="white"/>
</svg>
