<svg width="44" height="44" viewBox="0 0 44 44" fill="none" xmlns="http://www.w3.org/2000/svg">
<path d="M22 0C16.0194 0 15.274 0.0288786 12.9335 0.127891C10.5833 0.243405 8.99362 0.607826 7.59095 1.15239C6.1229 1.70662 4.79339 2.57434 3.69509 3.69509C2.57122 4.79082 1.70301 6.12107 1.15239 7.59095C0.607826 8.99362 0.243405 10.5833 0.127891 12.9335C0.0220028 15.2754 0 16.0194 0 22C0 27.9806 0.0288786 28.726 0.127891 31.0665C0.243405 33.4098 0.607826 35.0064 1.15239 36.409C1.70662 37.8771 2.57434 39.2066 3.69509 40.3049C4.79082 41.4288 6.12107 42.297 7.59095 42.8476C8.99362 43.3853 10.5902 43.7566 12.9335 43.8721C15.2754 43.978 16.0194 44 22 44C27.9806 44 28.726 43.9711 31.0665 43.8721C33.4098 43.7566 35.0064 43.3839 36.4091 42.8476C37.8771 42.2934 39.2066 41.4257 40.3049 40.3049C41.4302 39.2104 42.2987 37.8798 42.8476 36.409C43.3853 35.0064 43.7566 33.4098 43.8721 31.0665C43.978 28.7246 44 27.9806 44 22C44 16.0194 43.9711 15.274 43.8721 12.9335C43.7566 10.5902 43.3839 8.98537 42.8476 7.59095C42.2934 6.1229 41.4257 4.79339 40.3049 3.69509C39.2104 2.56977 37.8798 1.70133 36.4091 1.15239C35.0064 0.607826 33.4098 0.243405 31.0665 0.127891C28.7246 0.0220028 27.9806 0 22 0ZM22 3.9605C27.8734 3.9605 28.5747 3.98937 30.896 4.08839C33.0371 4.18877 34.2033 4.54632 34.9775 4.84886C35.9347 5.20217 36.801 5.76451 37.5133 6.49494C38.2425 7.20429 38.8027 8.06861 39.1525 9.02388C39.4551 9.7981 39.8126 10.9642 39.913 13.1054C40.012 15.4267 40.0409 16.1294 40.0409 22.0014C40.0409 27.8734 40.012 28.5761 39.9047 30.8974C39.7892 33.0385 39.4317 34.2047 39.1305 34.9789C38.7138 36.0116 38.249 36.7336 37.4817 37.5147C36.7669 38.2405 35.9012 38.8002 34.9459 39.1539C34.1813 39.4564 32.9986 39.814 30.8492 39.9144C28.5156 40.0134 27.828 40.0423 21.9395 40.0423C16.051 40.0423 15.3648 40.0134 13.0284 39.9061C10.8872 39.7906 9.70597 39.4331 8.93174 39.1319C7.88661 38.7152 7.17015 38.2504 6.4028 37.4831C5.62858 36.7088 5.13627 35.9717 4.75672 34.9472C4.44868 34.1826 4.09664 33 3.9825 30.8506C3.90411 28.5444 3.86698 27.8294 3.86698 21.9684C3.86698 16.1101 3.90411 15.3937 3.9825 13.0586C4.09664 10.9092 4.44868 9.72934 4.75672 8.962C5.13627 7.91549 5.62995 7.2004 6.4028 6.42618C7.16877 5.66021 7.88661 5.16515 8.93174 4.77735C9.70597 4.47618 10.8584 4.11864 13.0078 4.01138C15.3414 3.92749 16.029 3.89724 21.9092 3.89724L22 3.9605ZM22 10.7085C20.5167 10.7079 19.0478 10.9997 17.6772 11.5671C16.3067 12.1345 15.0614 12.9664 14.0125 14.0153C12.9636 15.0642 12.1317 16.3094 11.5643 17.68C10.9969 19.0505 10.7052 20.5194 10.7057 22.0028C10.7052 23.4861 10.9969 24.955 11.5643 26.3255C12.1317 27.6961 12.9636 28.9413 14.0125 29.9902C15.0614 31.0391 16.3067 31.871 17.6772 32.4384C19.0478 33.0058 20.5167 33.2976 22 33.297C23.4833 33.2976 24.9522 33.0058 26.3228 32.4384C27.6933 31.871 28.9386 31.0391 29.9875 29.9902C31.0364 28.9413 31.8683 27.6961 32.4357 26.3255C33.0031 24.955 33.2948 23.4861 33.2943 22.0028C33.2948 20.5194 33.0031 19.0505 32.4357 17.68C31.8683 16.3094 31.0364 15.0642 29.9875 14.0153C28.9386 12.9664 27.6933 12.1345 26.3228 11.5671C24.9522 10.9997 23.4833 10.7079 22 10.7085ZM22 29.3365C17.946 29.3365 14.6662 26.0568 14.6662 22.0028C14.6662 17.9487 17.946 14.669 22 14.669C26.054 14.669 29.3338 17.9487 29.3338 22.0028C29.3338 26.0568 26.054 29.3365 22 29.3365ZM36.3898 10.2574C36.3891 10.9583 36.1101 11.6302 35.6143 12.1255C35.1184 12.6209 34.4462 12.8991 33.7453 12.8991C33.3988 12.8991 33.0556 12.8309 32.7355 12.6982C32.4153 12.5656 32.1244 12.3712 31.8793 12.1262C31.6343 11.8811 31.4399 11.5902 31.3073 11.27C31.1747 10.9499 31.1064 10.6067 31.1064 10.2602C31.1064 9.9136 31.1747 9.57045 31.3073 9.25027C31.4399 8.9301 31.6343 8.63918 31.8793 8.39413C32.1244 8.14909 32.4153 7.9547 32.7355 7.82208C33.0556 7.68946 33.3988 7.6212 33.7453 7.6212C35.1989 7.6212 36.3898 8.80385 36.3898 10.2574Z" fill="white"/>
</svg>
